{
	"asset":{
		"version":"2.0",
		"generator":"Created using the official Cinema 4D glTF Exporter 1.000x284978"
	},
	"scenes":[{
		"nodes":[0]
	}],
	"nodes":[{
		"name":"Cloner.1",
		"translation":[-3.9761539724019576e-16,
		-6.493552207946777,
		0.0],
		"rotation":[0.0,
		0.0,
		0.7071067690849304,
		0.7071067690849304],
		"scale":[1.0,
		1.0,
		1.0],
		"children":[1,
		2,
		3,
		4,
		5,
		6,
		7,
		8,
		9,
		10]
	},
	{
		"name":"Cylinder.2 0",
		"translation":[0.0,
		30.0,
		0.0],
		"rotation":[0.0,
		0.0,
		0.0,
		-1.0],
		"scale":[1.0,
		1.0,
		1.0],
		"mesh":0
	},
	{
		"name":"Cylinder.2 1",
		"translation":[0.0,
		24.270509719848634,
		-17.63355827331543],
		"rotation":[0.30901700258255007,
		0.0,
		0.0,
		-0.9510565400123596],
		"scale":[1.0,
		1.0,
		1.0],
		"mesh":1
	},
	{
		"name":"Cylinder.2 2",
		"translation":[0.0,
		9.270509719848633,
		-28.531696319580079],
		"rotation":[0.5877852439880371,
		0.0,
		0.0,
		-0.80901700258255],
		"scale":[1.0,
		1.0,
		1.0],
		"mesh":2
	},
	{
		"name":"Cylinder.2 3",
		"translation":[0.0,
		-9.270509719848633,
		-28.531696319580079],
		"rotation":[0.80901700258255,
		-1.3546537541253309e-17,
		1.3546537541253309e-17,
		-0.5877852439880371],
		"scale":[1.0,
		1.0,
		1.0],
		"mesh":3
	},
	{
		"name":"Cylinder.2 4",
		"translation":[0.0,
		-24.270509719848634,
		-17.63355827331543],
		"rotation":[0.9510565400123596,
		-3.931358171765271e-17,
		3.931358171765271e-17,
		-0.30901700258255007],
		"scale":[1.0,
		1.0,
		1.0],
		"mesh":4
	},
	{
		"name":"Cylinder.2 5",
		"translation":[0.0,
		-30.0,
		-3.673940187178589e-15],
		"rotation":[1.0,
		-6.123234262925839e-17,
		6.123234262925839e-17,
		-6.123234262925839e-17],
		"scale":[1.0,
		1.0,
		1.0],
		"mesh":5
	},
	{
		"name":"Cylinder.2 6",
		"translation":[0.0,
		-24.270509719848634,
		17.63355827331543],
		"rotation":[0.9510565400123596,
		-7.715725025190888e-17,
		7.715725025190888e-17,
		0.30901700258255007],
		"scale":[1.0,
		1.0,
		1.0],
		"mesh":6
	},
	{
		"name":"Cylinder.2 7",
		"translation":[0.0,
		-9.270509719848633,
		28.531696319580079],
		"rotation":[0.80901700258255,
		-8.55294694863582e-17,
		8.55294694863582e-17,
		0.5877852439880371],
		"scale":[1.0,
		1.0,
		1.0],
		"mesh":7
	},
	{
		"name":"Cylinder.2 8",
		"translation":[0.0,
		9.270509719848633,
		28.531696319580079],
		"rotation":[-0.5877852439880371,
		0.0,
		0.0,
		-0.80901700258255],
		"scale":[1.0,
		1.0,
		1.0],
		"mesh":8
	},
	{
		"name":"Cylinder.2 9",
		"translation":[0.0,
		24.270509719848634,
		17.63355827331543],
		"rotation":[-0.30901700258255007,
		0.0,
		0.0,
		-0.9510565400123596],
		"scale":[1.0,
		1.0,
		1.0],
		"mesh":9
	}],
	"meshes":[{
		"name":"Cylinder.2 0",
		"primitives":[{
			"attributes":{
				"POSITION":3,
				"NORMAL":4,
				"TEXCOORD_0":5
			},
			"indices":2
		}]
	},
	{
		"name":"Cylinder.2 1",
		"primitives":[{
			"attributes":{
				"POSITION":7,
				"NORMAL":8,
				"TEXCOORD_0":9
			},
			"indices":6
		}]
	},
	{
		"name":"Cylinder.2 2",
		"primitives":[{
			"attributes":{
				"POSITION":11,
				"NORMAL":12,
				"TEXCOORD_0":13
			},
			"indices":10
		}]
	},
	{
		"name":"Cylinder.2 3",
		"primitives":[{
			"attributes":{
				"POSITION":15,
				"NORMAL":16,
				"TEXCOORD_0":17
			},
			"indices":14
		}]
	},
	{
		"name":"Cylinder.2 4",
		"primitives":[{
			"attributes":{
				"POSITION":19,
				"NORMAL":20,
				"TEXCOORD_0":21
			},
			"indices":18
		}]
	},
	{
		"name":"Cylinder.2 5",
		"primitives":[{
			"attributes":{
				"POSITION":23,
				"NORMAL":24,
				"TEXCOORD_0":25
			},
			"indices":22
		}]
	},
	{
		"name":"Cylinder.2 6",
		"primitives":[{
			"attributes":{
				"POSITION":27,
				"NORMAL":28,
				"TEXCOORD_0":29
			},
			"indices":26
		}]
	},
	{
		"name":"Cylinder.2 7",
		"primitives":[{
			"attributes":{
				"POSITION":31,
				"NORMAL":32,
				"TEXCOORD_0":33
			},
			"indices":30
		}]
	},
	{
		"name":"Cylinder.2 8",
		"primitives":[{
			"attributes":{
				"POSITION":35,
				"NORMAL":36,
				"TEXCOORD_0":37
			},
			"indices":34
		}]
	},
	{
		"name":"Cylinder.2 9",
		"primitives":[{
			"attributes":{
				"POSITION":39,
				"NORMAL":40,
				"TEXCOORD_0":41
			},
			"indices":38
		}]
	}],
	"accessors":[{
		"bufferView":0,
		"type":"SCALAR",
		"componentType":5126,
		"count":501,
		"byteOffset":0,
		"min":[0.0],
		"max":[16.66666603088379]
	},
	{
		"bufferView":0,
		"type":"VEC4",
		"componentType":5126,
		"count":501,
		"byteOffset":2004,
		"min":[0.0,
		0.0,
		0.6724985241889954,
		0.6724985241889954],
		"max":[0.21850800514221192,
		0.21850800514221192,
		0.7071067690849304,
		0.7071067690849304]
	},
	{
		"bufferView":1,
		"type":"SCALAR",
		"componentType":5123,
		"count":768,
		"byteOffset":0,
		"min":[0],
		"max":[259]
	},
	{
		"bufferView":2,
		"type":"VEC3",
		"componentType":5126,
		"count":260,
		"byteOffset":0,
		"min":[-2.706648349761963,
		-0.10000000149011612,
		-2.706648349761963],
		"max":[2.706648349761963,
		0.10000000149011612,
		2.706648349761963]
	},
	{
		"bufferView":2,
		"type":"VEC3",
		"componentType":5126,
		"count":260,
		"byteOffset":12,
		"min":[-0.9998660087585449,
		-1.0,
		-0.9998660087585449],
		"max":[0.9998660087585449,
		1.0,
		0.9998660087585449]
	},
	{
		"bufferView":2,
		"type":"VEC2",
		"componentType":5126,
		"count":260,
		"byteOffset":24,
		"min":[0.0,
		0.0],
		"max":[1.0,
		1.0]
	},
	{
		"bufferView":3,
		"type":"SCALAR",
		"componentType":5123,
		"count":768,
		"byteOffset":0,
		"min":[0],
		"max":[259]
	},
	{
		"bufferView":4,
		"type":"VEC3",
		"componentType":5126,
		"count":260,
		"byteOffset":0,
		"min":[-2.706648349761963,
		-0.10000000149011612,
		-2.706648349761963],
		"max":[2.706648349761963,
		0.10000000149011612,
		2.706648349761963]
	},
	{
		"bufferView":4,
		"type":"VEC3",
		"componentType":5126,
		"count":260,
		"byteOffset":12,
		"min":[-0.9998660087585449,
		-1.0,
		-0.9998660087585449],
		"max":[0.9998660087585449,
		1.0,
		0.9998660087585449]
	},
	{
		"bufferView":4,
		"type":"VEC2",
		"componentType":5126,
		"count":260,
		"byteOffset":24,
		"min":[0.0,
		0.0],
		"max":[1.0,
		1.0]
	},
	{
		"bufferView":5,
		"type":"SCALAR",
		"componentType":5123,
		"count":768,
		"byteOffset":0,
		"min":[0],
		"max":[259]
	},
	{
		"bufferView":6,
		"type":"VEC3",
		"componentType":5126,
		"count":260,
		"byteOffset":0,
		"min":[-2.706648349761963,
		-0.10000000149011612,
		-2.706648349761963],
		"max":[2.706648349761963,
		0.10000000149011612,
		2.706648349761963]
	},
	{
		"bufferView":6,
		"type":"VEC3",
		"componentType":5126,
		"count":260,
		"byteOffset":12,
		"min":[-0.9998660087585449,
		-1.0,
		-0.9998660087585449],
		"max":[0.9998660087585449,
		1.0,
		0.9998660087585449]
	},
	{
		"bufferView":6,
		"type":"VEC2",
		"componentType":5126,
		"count":260,
		"byteOffset":24,
		"min":[0.0,
		0.0],
		"max":[1.0,
		1.0]
	},
	{
		"bufferView":7,
		"type":"SCALAR",
		"componentType":5123,
		"count":768,
		"byteOffset":0,
		"min":[0],
		"max":[259]
	},
	{
		"bufferView":8,
		"type":"VEC3",
		"componentType":5126,
		"count":260,
		"byteOffset":0,
		"min":[-2.706648349761963,
		-0.10000000149011612,
		-2.706648349761963],
		"max":[2.706648349761963,
		0.10000000149011612,
		2.706648349761963]
	},
	{
		"bufferView":8,
		"type":"VEC3",
		"componentType":5126,
		"count":260,
		"byteOffset":12,
		"min":[-0.9998660087585449,
		-1.0,
		-0.9998660087585449],
		"max":[0.9998660087585449,
		1.0,
		0.9998660087585449]
	},
	{
		"bufferView":8,
		"type":"VEC2",
		"componentType":5126,
		"count":260,
		"byteOffset":24,
		"min":[0.0,
		0.0],
		"max":[1.0,
		1.0]
	},
	{
		"bufferView":9,
		"type":"SCALAR",
		"componentType":5123,
		"count":768,
		"byteOffset":0,
		"min":[0],
		"max":[259]
	},
	{
		"bufferView":10,
		"type":"VEC3",
		"componentType":5126,
		"count":260,
		"byteOffset":0,
		"min":[-2.706648349761963,
		-0.10000000149011612,
		-2.706648349761963],
		"max":[2.706648349761963,
		0.10000000149011612,
		2.706648349761963]
	},
	{
		"bufferView":10,
		"type":"VEC3",
		"componentType":5126,
		"count":260,
		"byteOffset":12,
		"min":[-0.9998660087585449,
		-1.0,
		-0.9998660087585449],
		"max":[0.9998660087585449,
		1.0,
		0.9998660087585449]
	},
	{
		"bufferView":10,
		"type":"VEC2",
		"componentType":5126,
		"count":260,
		"byteOffset":24,
		"min":[0.0,
		0.0],
		"max":[1.0,
		1.0]
	},
	{
		"bufferView":11,
		"type":"SCALAR",
		"componentType":5123,
		"count":768,
		"byteOffset":0,
		"min":[0],
		"max":[259]
	},
	{
		"bufferView":12,
		"type":"VEC3",
		"componentType":5126,
		"count":260,
		"byteOffset":0,
		"min":[-2.706648349761963,
		-0.10000000149011612,
		-2.706648349761963],
		"max":[2.706648349761963,
		0.10000000149011612,
		2.706648349761963]
	},
	{
		"bufferView":12,
		"type":"VEC3",
		"componentType":5126,
		"count":260,
		"byteOffset":12,
		"min":[-0.9998660087585449,
		-1.0,
		-0.9998660087585449],
		"max":[0.9998660087585449,
		1.0,
		0.9998660087585449]
	},
	{
		"bufferView":12,
		"type":"VEC2",
		"componentType":5126,
		"count":260,
		"byteOffset":24,
		"min":[0.0,
		0.0],
		"max":[1.0,
		1.0]
	},
	{
		"bufferView":13,
		"type":"SCALAR",
		"componentType":5123,
		"count":768,
		"byteOffset":0,
		"min":[0],
		"max":[259]
	},
	{
		"bufferView":14,
		"type":"VEC3",
		"componentType":5126,
		"count":260,
		"byteOffset":0,
		"min":[-2.706648349761963,
		-0.10000000149011612,
		-2.706648349761963],
		"max":[2.706648349761963,
		0.10000000149011612,
		2.706648349761963]
	},
	{
		"bufferView":14,
		"type":"VEC3",
		"componentType":5126,
		"count":260,
		"byteOffset":12,
		"min":[-0.9998660087585449,
		-1.0,
		-0.9998660087585449],
		"max":[0.9998660087585449,
		1.0,
		0.9998660087585449]
	},
	{
		"bufferView":14,
		"type":"VEC2",
		"componentType":5126,
		"count":260,
		"byteOffset":24,
		"min":[0.0,
		0.0],
		"max":[1.0,
		1.0]
	},
	{
		"bufferView":15,
		"type":"SCALAR",
		"componentType":5123,
		"count":768,
		"byteOffset":0,
		"min":[0],
		"max":[259]
	},
	{
		"bufferView":16,
		"type":"VEC3",
		"componentType":5126,
		"count":260,
		"byteOffset":0,
		"min":[-2.706648349761963,
		-0.10000000149011612,
		-2.706648349761963],
		"max":[2.706648349761963,
		0.10000000149011612,
		2.706648349761963]
	},
	{
		"bufferView":16,
		"type":"VEC3",
		"componentType":5126,
		"count":260,
		"byteOffset":12,
		"min":[-0.9998660087585449,
		-1.0,
		-0.9998660087585449],
		"max":[0.9998660087585449,
		1.0,
		0.9998660087585449]
	},
	{
		"bufferView":16,
		"type":"VEC2",
		"componentType":5126,
		"count":260,
		"byteOffset":24,
		"min":[0.0,
		0.0],
		"max":[1.0,
		1.0]
	},
	{
		"bufferView":17,
		"type":"SCALAR",
		"componentType":5123,
		"count":768,
		"byteOffset":0,
		"min":[0],
		"max":[259]
	},
	{
		"bufferView":18,
		"type":"VEC3",
		"componentType":5126,
		"count":260,
		"byteOffset":0,
		"min":[-2.706648349761963,
		-0.10000000149011612,
		-2.706648349761963],
		"max":[2.706648349761963,
		0.10000000149011612,
		2.706648349761963]
	},
	{
		"bufferView":18,
		"type":"VEC3",
		"componentType":5126,
		"count":260,
		"byteOffset":12,
		"min":[-0.9998660087585449,
		-1.0,
		-0.9998660087585449],
		"max":[0.9998660087585449,
		1.0,
		0.9998660087585449]
	},
	{
		"bufferView":18,
		"type":"VEC2",
		"componentType":5126,
		"count":260,
		"byteOffset":24,
		"min":[0.0,
		0.0],
		"max":[1.0,
		1.0]
	},
	{
		"bufferView":19,
		"type":"SCALAR",
		"componentType":5123,
		"count":768,
		"byteOffset":0,
		"min":[0],
		"max":[259]
	},
	{
		"bufferView":20,
		"type":"VEC3",
		"componentType":5126,
		"count":260,
		"byteOffset":0,
		"min":[-2.706648349761963,
		-0.10000000149011612,
		-2.706648349761963],
		"max":[2.706648349761963,
		0.10000000149011612,
		2.706648349761963]
	},
	{
		"bufferView":20,
		"type":"VEC3",
		"componentType":5126,
		"count":260,
		"byteOffset":12,
		"min":[-0.9998660087585449,
		-1.0,
		-0.9998660087585449],
		"max":[0.9998660087585449,
		1.0,
		0.9998660087585449]
	},
	{
		"bufferView":20,
		"type":"VEC2",
		"componentType":5126,
		"count":260,
		"byteOffset":24,
		"min":[0.0,
		0.0],
		"max":[1.0,
		1.0]
	}],
	"bufferViews":[{
		"buffer":0,
		"byteOffset":0,
		"byteLength":10020
	},
	{
		"buffer":1,
		"byteOffset":0,
		"byteLength":1536,
		"target":34963
	},
	{
		"buffer":1,
		"byteOffset":1536,
		"byteLength":8320,
		"target":34962,
		"byteStride":32
	},
	{
		"buffer":2,
		"byteOffset":0,
		"byteLength":1536,
		"target":34963
	},
	{
		"buffer":2,
		"byteOffset":1536,
		"byteLength":8320,
		"target":34962,
		"byteStride":32
	},
	{
		"buffer":3,
		"byteOffset":0,
		"byteLength":1536,
		"target":34963
	},
	{
		"buffer":3,
		"byteOffset":1536,
		"byteLength":8320,
		"target":34962,
		"byteStride":32
	},
	{
		"buffer":4,
		"byteOffset":0,
		"byteLength":1536,
		"target":34963
	},
	{
		"buffer":4,
		"byteOffset":1536,
		"byteLength":8320,
		"target":34962,
		"byteStride":32
	},
	{
		"buffer":5,
		"byteOffset":0,
		"byteLength":1536,
		"target":34963
	},
	{
		"buffer":5,
		"byteOffset":1536,
		"byteLength":8320,
		"target":34962,
		"byteStride":32
	},
	{
		"buffer":6,
		"byteOffset":0,
		"byteLength":1536,
		"target":34963
	},
	{
		"buffer":6,
		"byteOffset":1536,
		"byteLength":8320,
		"target":34962,
		"byteStride":32
	},
	{
		"buffer":7,
		"byteOffset":0,
		"byteLength":1536,
		"target":34963
	},
	{
		"buffer":7,
		"byteOffset":1536,
		"byteLength":8320,
		"target":34962,
		"byteStride":32
	},
	{
		"buffer":8,
		"byteOffset":0,
		"byteLength":1536,
		"target":34963
	},
	{
		"buffer":8,
		"byteOffset":1536,
		"byteLength":8320,
		"target":34962,
		"byteStride":32
	},
	{
		"buffer":9,
		"byteOffset":0,
		"byteLength":1536,
		"target":34963
	},
	{
		"buffer":9,
		"byteOffset":1536,
		"byteLength":8320,
		"target":34962,
		"byteStride":32
	},
	{
		"buffer":10,
		"byteOffset":0,
		"byteLength":1536,
		"target":34963
	},
	{
		"buffer":10,
		"byteOffset":1536,
		"byteLength":8320,
		"target":34962,
		"byteStride":32
	}],
	"buffers":[{
		"uri":"data:application/octet-stream;base64,",
		"byteLength":10020
	},
	{
		"uri":"data:application/octet-stream;base64,",
		"byteLength":9856
	},
	{
		"uri":"data:application/octet-stream;base64,",
		"byteLength":9856
	},
	{
		"uri":"data:application/octet-stream;base64,",
		"byteLength":9856
	},
	{
		"uri":"data:application/octet-stream;base64,",
		"byteLength":9856
	},
	{
		"uri":"data:application/octet-stream;base64,",
		"byteLength":9856
	},
	{
		"uri":"data:application/octet-stream;base64,",
		"byteLength":9856
	},
	{
		"uri":"data:application/octet-stream;base64,",
		"byteLength":9856
	},
	{
		"uri":"data:application/octet-stream;base64,",
		"byteLength":9856
	},
	{
		"uri":"data:application/octet-stream;base64,",
		"byteLength":9856
	},
	{
		"uri":"data:application/octet-stream;base64,",
		"byteLength":9856
	}],
	"animations":[{
		"samplers":[{
			"input":0,
			"interpolation":"LINEAR",
			"output":1
		}],
		"channels":[{
			"sampler":0,
			"target":{
				"node":0,
				"path":"rotation"
			}
		}]
	}]
}